<?xml version="1.0" encoding="utf-8"?>
<!-- Generator: Adobe Illustrator 16.0.0, SVG Export Plug-In . SVG Version: 6.00 Build 0)  -->
<!DOCTYPE svg PUBLIC "-//W3C//DTD SVG 1.1//EN" "http://www.w3.org/Graphics/SVG/1.1/DTD/svg11.dtd">
<svg version="1.1" id="Layer_1" xmlns="http://www.w3.org/2000/svg" xmlns:xlink="http://www.w3.org/1999/xlink" x="0px" y="0px"
	 width="60px" height="60px" viewBox="0 0 60 60" enable-background="new 0 0 60 60" xml:space="preserve">
<g id="Layer_1_1_" display="none">
	
		<image display="inline" overflow="visible" enable-background="new    " width="14" height="20" xlink:href="28ECDED8.jpeg"  transform="matrix(0.9999 0 0 0.9499 3.0005 0.6626)">
	</image>
	
		<image display="inline" overflow="visible" enable-background="new    " width="14" height="20" xlink:href="28ECDED8.jpeg"  transform="matrix(0.9999 0 0 0.9499 3.0005 20.6626)">
	</image>
	
		<image display="inline" overflow="visible" enable-background="new    " width="10" height="20" xlink:href="28ECDED8.jpeg"  transform="matrix(0.9999 0 0 0.9499 25.0005 0.6626)">
	</image>
	
		<image display="inline" overflow="visible" enable-background="new    " width="10" height="20" xlink:href="28ECDED8.jpeg"  transform="matrix(0.9999 0 0 0.9499 25.0005 20.6626)">
	</image>
</g>
<g id="Layer_2">
	<path id="Facebook_3_" fill="#951B81" d="M28.032,4.166c0,0.48,0,2.622,0,2.622H26.11v3.208h1.921v9.529h3.948v-9.53h2.647
		c0,0,0.247-1.538,0.368-3.219c-0.346,0-3.002,0-3.002,0s0-1.866,0-2.193s0.43-0.768,0.855-0.768c0.424,0,1.319,0,2.149,0
		c0-0.437,0-1.945,0-3.338c-1.106,0-2.368,0-2.925,0C27.934,0.477,28.032,3.687,28.032,4.166z"/>
	<path id="Facebook_1_" fill="#3B599A" d="M28.032,24.166c0,0.479,0,2.621,0,2.621H26.11v3.208h1.921v9.528h3.948v-9.528h2.647
		c0,0,0.247-1.538,0.368-3.22c-0.346,0-3.002,0-3.002,0s0-1.865,0-2.192s0.43-0.769,0.855-0.769c0.424,0,1.319,0,2.149,0
		c0-0.436,0-1.945,0-3.338c-1.106,0-2.368,0-2.925,0C27.934,20.477,28.032,23.687,28.032,24.166z"/>
	<path id="Twitter_2_" fill="#951B81" d="M14.656,14.705h-4.645c-0.646,0-1.195-0.226-1.646-0.68
		c-0.453-0.454-0.677-1.003-0.677-1.652v-1.652h6.618c0.597,0,1.112-0.216,1.538-0.642c0.427-0.429,0.642-0.942,0.642-1.541
		s-0.215-1.112-0.643-1.54c-0.428-0.427-0.944-0.642-1.543-0.642H7.688V2.942c0-0.646-0.23-1.2-0.688-1.661
		C6.545,0.82,5.994,0.588,5.354,0.588c-0.658,0-1.219,0.229-1.674,0.68C3.222,1.722,2.994,2.279,2.994,2.944v9.431
		c0,1.939,0.686,3.597,2.058,4.972c1.373,1.378,3.028,2.065,4.963,2.065h4.643c0.646,0,1.199-0.232,1.66-0.694
		c0.459-0.459,0.689-1.014,0.689-1.66s-0.23-1.199-0.689-1.661C15.857,14.938,15.302,14.705,14.656,14.705z"/>
	<path id="Twitter_1_" fill="#55ACEE" d="M14.656,34.705h-4.645c-0.646,0-1.195-0.227-1.646-0.68
		c-0.453-0.455-0.677-1.004-0.677-1.652v-1.652h6.618c0.598,0,1.112-0.216,1.538-0.642c0.427-0.429,0.642-0.942,0.642-1.541
		s-0.215-1.112-0.643-1.54c-0.428-0.427-0.944-0.642-1.543-0.642H7.688v-3.415c0-0.646-0.23-1.2-0.688-1.661
		c-0.456-0.461-1.007-0.693-1.647-0.693c-0.658,0-1.219,0.229-1.674,0.68c-0.457,0.454-0.686,1.011-0.686,1.676v9.431
		c0,1.938,0.686,3.597,2.058,4.972c1.373,1.379,3.028,2.065,4.963,2.065h4.644c0.645,0,1.199-0.231,1.659-0.693
		c0.459-0.459,0.689-1.014,0.689-1.659c0-0.646-0.23-1.199-0.689-1.66C15.857,34.938,15.302,34.705,14.656,34.705z"/>
</g>
<polygon fill="#FFFFFF" points="9.26,51.227 2.332,44.227 16.188,44.227 "/>
</svg>
