<?xml version="1.0" encoding="utf-8"?>
<!-- Generator: Adobe Illustrator 16.0.0, SVG Export Plug-In . SVG Version: 6.00 Build 0)  -->
<!DOCTYPE svg PUBLIC "-//W3C//DTD SVG 1.1//EN" "http://www.w3.org/Graphics/SVG/1.1/DTD/svg11.dtd">
<svg version="1.1" id="Layer_1" xmlns="http://www.w3.org/2000/svg" xmlns:xlink="http://www.w3.org/1999/xlink" x="0px" y="0px"
	 width="411.584px" height="158.561px" viewBox="0 0 411.584 158.561" enable-background="new 0 0 411.584 158.561"
	 xml:space="preserve">
<g id="Layer_1_1_" display="none">
</g>
<g id="Layer_2">
	<path id="Facebook_3_" fill="#951B81" d="M28.032,4.166c0,0.48,0,2.622,0,2.622H26.11v3.208h1.921v9.529h3.948v-9.53h2.647
		c0,0,0.247-1.538,0.368-3.219c-0.346,0-3.002,0-3.002,0s0-1.866,0-2.193s0.43-0.768,0.855-0.768c0.424,0,1.318,0,2.148,0
		c0-0.437,0-1.945,0-3.338c-1.105,0-2.368,0-2.926,0C27.934,0.477,28.032,3.687,28.032,4.166z"/>
	<path id="Facebook_1_" fill="#3B599A" d="M28.032,24.166c0,0.479,0,2.621,0,2.621H26.11v3.208h1.921v9.528h3.948v-9.528h2.647
		c0,0,0.247-1.538,0.368-3.22c-0.346,0-3.002,0-3.002,0s0-1.865,0-2.192s0.43-0.769,0.855-0.769c0.424,0,1.318,0,2.148,0
		c0-0.436,0-1.945,0-3.338c-1.105,0-2.368,0-2.926,0C27.934,20.477,28.032,23.687,28.032,24.166z"/>
	<path id="Twitter_2_" fill="#951B81" d="M14.656,14.705h-4.645c-0.646,0-1.195-0.226-1.646-0.68
		c-0.453-0.454-0.677-1.003-0.677-1.652v-1.652h6.618c0.597,0,1.112-0.216,1.538-0.642c0.427-0.429,0.642-0.942,0.642-1.541
		s-0.215-1.112-0.643-1.54c-0.428-0.427-0.944-0.642-1.543-0.642H7.688V2.942c0-0.646-0.23-1.2-0.688-1.661
		C6.545,0.82,5.994,0.588,5.354,0.588c-0.658,0-1.219,0.229-1.674,0.68C3.222,1.722,2.994,2.279,2.994,2.944v9.431
		c0,1.939,0.686,3.597,2.058,4.972c1.373,1.378,3.028,2.065,4.963,2.065h4.643c0.646,0,1.199-0.232,1.66-0.694
		c0.459-0.459,0.689-1.014,0.689-1.66s-0.23-1.199-0.689-1.661C15.857,14.938,15.302,14.705,14.656,14.705z"/>
	<path id="Twitter_1_" fill="#55ACEE" d="M14.656,34.705h-4.645c-0.646,0-1.195-0.227-1.646-0.68
		c-0.453-0.455-0.677-1.004-0.677-1.652v-1.652h6.618c0.598,0,1.112-0.216,1.538-0.642c0.427-0.429,0.642-0.942,0.642-1.541
		s-0.215-1.112-0.643-1.54c-0.428-0.427-0.944-0.642-1.543-0.642H7.688v-3.415c0-0.646-0.23-1.2-0.688-1.661
		c-0.456-0.461-1.007-0.693-1.647-0.693c-0.658,0-1.219,0.229-1.674,0.68c-0.457,0.454-0.686,1.011-0.686,1.676v9.431
		c0,1.938,0.686,3.597,2.058,4.972c1.373,1.379,3.028,2.065,4.963,2.065h4.644c0.645,0,1.199-0.231,1.659-0.693
		c0.459-0.459,0.689-1.014,0.689-1.659s-0.23-1.199-0.689-1.66C15.857,34.938,15.302,34.705,14.656,34.705z"/>
</g>
<g>
	<rect x="122.332" y="51.447" fill="none" width="59.999" height="45"/>
	<g>
		<polygon fill="#FFFFFF" points="170.343,60.963 161.164,60.963 161.164,51.432 134.147,51.432 134.147,96.496 170.518,96.496 
			170.518,61.145 		"/>
		<polygon fill="#CCCCCC" points="170.343,60.963 170.518,60.963 161.164,51.383 161.164,51.432 161.164,60.963 		"/>
	</g>
</g>
<g>
	<rect x="2.332" y="51.227" fill="none" width="60" height="45"/>
	<path fill="#FFFFFF" d="M59.603,68.801c-0.795-14.967-16.339-12.406-16.339-12.406s-3.151-5.114-11.225-5.114
		c-0.113,0-0.223,0.012-0.332,0.028c-0.109-0.017-0.219-0.028-0.332-0.028c-8.074,0-11.225,5.114-11.225,5.114
		S4.606,53.834,3.812,68.801s12.4,13.195,12.4,13.195l0.197,14.178h8.475H38.53h8.476l0.197-14.178
		C47.203,81.996,60.396,83.768,59.603,68.801z"/>
</g>
<path fill="#FFFFFF" d="M-265.167-84.579"/>
<g>
	<rect x="62.332" y="51.439" fill="none" width="60" height="45"/>
	<path fill="#FFFFFF" d="M116.683,89.453c0-4.938-3.899-6.537-4.811-6.961c-0.912-0.426-2.23-1.104-2.23-1.104l-0.594-0.512
		c2.377-1.953,2.802-4.5,2.802-8.66c0-4.159,0.509-5.178-3.396-9.593c-3.906-4.415-11.451-1.358-11.451-1.358
		c-1.264,0.17-2.643,1.273-2.812,3.227c-0.17,1.952,2.037,2.547,2.037,2.547c-2.462,2.801-1.104,6.282-1.501,7.301
		c-0.396,1.021-0.136,1.638-0.136,1.638s-0.704,0.353-0.704,1.285c0,0.934,0.134,0.56,0.134,1.832s2.981,3.141,2.981,3.141
		l-0.01,0.849c0,0,0.254,0.087-1.783,0.002c-0.15-0.006-0.293,0.037-0.432,0.113c0.026-0.491,0.047-0.853,0.061-1.009
		c0.084-0.935-4.93-6.021-4.93-6.021l-1.188,0.171l0.254-0.68c2.545-1.361,4.492-5.862,4.486-11.211
		c-0.006-5.349-1.449-5.771-1.449-5.771l0.169-0.849c1.697-0.427-0.003-2.679-0.003-2.679c-8.16-8.526-14.518-0.362-14.857,0.017
		c-0.339,0.379-1.186,2.17-1.605,6.67s3.148,6.788,3.659,7.552c0.511,0.763-1.018,1.02-1.018,1.02l0.005,4.109
		c-3.736,0.004-9.304,6.386-9.304,6.386c-1.328,2.506-1.627,12.071,0.015,12.979c1.641,0.907,15.935,2.411,19.242-0.021
		c2.446-1.801,3.745-1.934,4.258-1.881c0.468,0.772,2.4,2.408,2.638,2.408c0,0,1.528,1.515,12.055,2.021
		C117.792,96.924,116.683,89.453,116.683,89.453z"/>
</g>
<g>
	<rect x="182.332" y="51.447" fill="none" width="59.398" height="44.55"/>
	<g>
		<path fill="#FFFFFF" d="M217.62,61.721c0,0-0.858,3.614-0.156,4.004c0.703,0.391,3.05-1.486,2.425-0.547
			c-0.625,0.939-2.02,2.896-4.959,0.157c0,0,0.657-0.471,1.205-0.314c0,0-0.938-4.536-10.246-2.972
			c-9.308,1.564-11.104,16.033-8.136,21.979c2.976,5.945,5.164,12.672,16.819,12.438c11.65-0.234,18.926-6.49,18.846-18.225
			C233.342,66.508,226.462,61.705,217.62,61.721z"/>
		<path fill="#FFFFFF" d="M193.836,52.977c2.033,4.927,20.18,8.056,20.18,8.056C208.617,56.263,193.836,52.977,193.836,52.977z"/>
		<path fill="#FFFFFF" d="M214.796,61.032c0,0-4.928-12.436-20.96-8.916C193.836,52.116,212.997,57.279,214.796,61.032z"/>
		<path fill="#FFFFFF" d="M215.588,62.596l0.627,1.174v-5.553c0.626-4.38,0.701-3.832,0-4.536c-0.703-0.704-1.801-0.469-1.285,1.212
			C215.443,56.574,215.588,62.596,215.588,62.596z"/>
	</g>
</g>
<rect x="40.745" y="7.688" fill="#951B81" width="25.085" height="4.773"/>
<rect x="40.745" y="15.302" fill="#951B81" width="25.085" height="4.773"/>
<rect x="40.745" y="0.078" fill="#951B81" width="25.085" height="4.906"/>
<rect x="92.864" y="7.267" transform="matrix(-0.7071 -0.7071 0.7071 -0.7071 170.9297 90.6012)" fill="#EEEEEE" width="22.73" height="5.266"/>
<rect x="92.865" y="7.264" transform="matrix(-0.7071 0.7071 -0.7071 -0.7071 184.9291 -56.8062)" fill="#EEEEEE" width="22.73" height="5.266"/>
<rect x="115.431" y="7.267" transform="matrix(-0.7071 -0.7071 0.7071 -0.7071 209.453 106.5581)" fill="#951B81" width="22.73" height="5.266"/>
<rect x="115.433" y="7.267" transform="matrix(-0.7071 0.7071 -0.7071 -0.7071 223.4565 -72.7585)" fill="#951B81" width="22.729" height="5.267"/>
<rect x="66.834" y="7.689" fill="#222222" width="25.085" height="4.773"/>
<rect x="66.834" y="15.302" fill="#222222" width="25.085" height="4.773"/>
<rect x="66.834" y="0.075" fill="#222222" width="25.085" height="4.773"/>
<g>
	<rect x="141.078" fill="#951B81" width="3.144" height="6.313"/>
	<rect x="140.916" y="13.668" fill="#951B81" width="3.144" height="6.313"/>
	<rect x="157.803" y="-0.038" fill="#951B81" width="3.09" height="20"/>
	<rect x="141.078" y="17.594" fill="#951B81" width="19.814" height="2.387"/>
	<rect x="141.313" y="-0.019" fill="#951B81" width="19.582" height="2.387"/>
	<rect x="140.916" y="8.788" fill="#951B81" width="8.148" height="2.387"/>
	<polygon fill="#951B81" points="148.408,6.201 153.41,9.962 148.408,13.723 	"/>
</g>
<text transform="matrix(1 0 0 1 106.75 -18.9395)" font-family="'MyriadPro-Regular'" font-size="12">951b81</text>
<g>
	<rect x="161.895" y="-0.019" fill="#222222" width="3.145" height="6.313"/>
	<rect x="161.895" y="13.668" fill="#222222" width="3.145" height="6.313"/>
	<rect x="178.75" y="-0.019" fill="#222222" width="3.145" height="20"/>
	<rect x="162.057" y="17.594" fill="#222222" width="19.814" height="2.387"/>
	<rect x="162.29" y="-0.019" fill="#222222" width="19.581" height="2.387"/>
	<rect x="161.895" y="8.788" fill="#222222" width="8.147" height="2.387"/>
	<polygon fill="#222222" points="169.387,6.201 174.389,9.962 169.387,13.723 	"/>
</g>
<rect x="183.896" y="-0.033" fill="#951B81" width="2.385" height="6.313"/>
<rect x="183.896" y="13.654" fill="#951B81" width="2.385" height="6.313"/>
<rect x="201.229" y="-0.005" fill="#951B81" width="2.666" height="19.972"/>
<rect x="184.057" y="17.58" fill="#951B81" width="19.814" height="2.387"/>
<polyline fill="#951B81" points="184.29,2.373 184.29,-0.014 203.871,-0.014 203.871,2.373 "/>
<rect x="188.236" y="8.735" fill="#951B81" width="8.148" height="2.387"/>
<polygon fill="#951B81" points="188.895,13.708 183.893,9.947 188.895,6.187 "/>
<g>
	<rect x="204.873" y="-0.019" fill="#222222" width="2.385" height="6.313"/>
	<rect x="204.873" y="13.668" fill="#222222" width="2.385" height="6.313"/>
	<rect x="222.205" y="-0.019" fill="#222222" width="2.666" height="20"/>
	<rect x="205.033" y="17.594" fill="#222222" width="19.814" height="2.387"/>
	<rect x="205.268" y="-0.019" fill="#222222" width="19.582" height="2.387"/>
	<rect x="209.215" y="8.75" fill="#222222" width="8.148" height="2.387"/>
	<polygon fill="#222222" points="209.871,13.723 204.869,9.962 209.871,6.201 	"/>
</g>
<rect x="234.689" y="-175.667" fill="none" width="165" height="155"/>
<g>
	<g>
		<path fill="#1D1D1B" d="M276.799,113.313h9.924c3.541,0,6.418-2.883,6.418-6.444c0-1.187-0.321-2.302-0.883-3.257l-13.359-21.055
			l12.959-19.891c0.557-0.956,0.879-2.072,0.879-3.259c0-3.558-2.868-6.442-6.413-6.442h-9.925l-11.542,21.081V52.964h-12.176
			c-3.542,0-6.416,2.885-6.416,6.44v47.463c0,3.562,2.874,6.444,6.416,6.444h12.176V89.172L276.799,113.313"/>
		<path fill="#1D1D1B" d="M345.723,51.518c7.529,0,12.182,1.366,15.387,2.733l-0.401,16.011c-3.766-1.126-7.694-2.01-12.745-2.01
			c-6.49,0-11.06,3.38-11.06,14.885c0,11.509,4.569,14.887,11.06,14.887c5.051,0,8.979-0.886,12.745-2.011l0.401,16.012
			c-3.205,1.367-7.857,2.734-15.387,2.734c-18.514,0-27.41-10.461-27.492-31.622C318.313,61.979,327.209,51.518,345.723,51.518z"/>
		<path fill="#1D1D1B" d="M302.367,113.313c-3.544,0-6.416-2.883-6.416-6.444V59.405c0-3.556,2.872-6.44,6.416-6.44h5.766
			c3.542,0,6.414,2.885,6.414,6.44v47.463c0,3.562-2.872,6.444-6.414,6.444H302.367z"/>
		<path fill="#1D1D1B" d="M394.929,113.313h9.925c3.541,0,6.411-2.883,6.411-6.444c0-1.187-0.32-2.302-0.878-3.257l-13.362-21.055
			l12.959-19.891c0.563-0.956,0.882-2.072,0.882-3.259c0-3.558-2.87-6.442-6.415-6.442h-9.925l-11.537,21.081V52.964h-12.181
			c-3.54,0-6.415,2.885-6.415,6.44v47.463c0,3.562,2.875,6.444,6.415,6.444h12.181V89.172L394.929,113.313"/>
	</g>
	<g>
		<path fill="#941B80" d="M257.594,119.775c2.675,0,4.905,0.271,6.204,0.716l-0.227,8.062c-0.58-0.182-1.742-0.494-3.39-0.494
			c-2.808,0-3.838,0.984-3.838,3.719c0,2.729,1.03,3.711,3.838,3.711c1.647,0,2.81-0.311,3.39-0.49l0.227,8.06
			c-1.299,0.446-3.529,0.718-6.204,0.718c-8.159,0-11.329-4.253-11.329-11.998C246.265,124.027,249.435,119.775,257.594,119.775z"/>
		<path fill="#941B80" d="M273.828,129.131l3.876-0.266v-0.764c0-0.713-0.443-1.296-2.716-1.296c-3.034,0-6.242,0.853-8.339,1.747
			l-0.225-7.123c2.187-0.846,6.513-1.654,10.523-1.654c8.295,0,10.08,3.087,10.08,8.371v14.824h-7.266l-0.718-1.213
			c-1.203,0.943-3.121,2.018-6.554,2.018c-5.222,0-7.448-2.602-7.448-7.297C265.043,131.103,267.672,129.578,273.828,129.131z
			 M275.612,133.207c-1.161,0.137-2.141,0.763-2.141,2.24c0,1.477,0.979,1.967,1.914,1.967c0.982,0,1.833-0.357,2.274-0.76v-3.668
			L275.612,133.207z"/>
		<path fill="#941B80" d="M306.069,142.971c-1.249,0.49-3.611,0.805-5.978,0.805c-6.466,0-8.832-2.912-8.832-8.018v-7.835h-3.431
			v-6.175l3.431-0.945v-2.433l10.258-2.73v4.944h4.641v7.339h-4.641v6.448c0,1.117,0.624,1.477,1.518,1.477
			c1.563,0,2.813-0.359,2.813-0.359L306.069,142.971z"/>
		<path fill="#941B80" d="M329.126,142.164c-2.859,1.208-7.227,1.611-9.991,1.611c-9.14,0-12.085-3.855-12.085-11.998
			c0-8.197,3.478-12.002,11.949-12.002c8.966,0,10.66,5.016,10.66,10.969c0,1.033-0.042,2.289-0.178,3.45h-13.109
			c-0.049,1.294,0.532,2.506,3.653,2.506c2.901,0,6.241-0.494,8.83-1.167L329.126,142.164z M316.372,129.717h4.235
			c0.135-2.016-0.268-3.092-1.875-3.092C316.997,126.625,316.282,127.477,316.372,129.717z"/>
		<path fill="#941B80" d="M347.632,128.821c0,0-0.847-0.226-2.188-0.226c-1.601,0-3.297,0.535-4.188,0.982v13.393h-10.261v-22.387
			h7.229l0.711,1.207c1.61-1.207,4.059-2.016,6.063-2.016c1.342,0,2.236,0.132,2.857,0.447L347.632,128.821z"/>
		<path fill="#941B80" d="M349.016,142.971v-22.387h10.253v22.387H349.016z"/>
		<path fill="#941B80" d="M369.349,120.584l0.711,1.207c1.832-1.12,4.327-2.016,7.275-2.016c6.949,0,8.022,3.626,8.022,8.147v15.048
			h-10.254v-14.553c0-0.54-0.403-0.809-0.896-0.809c-0.759,0-1.335,0.225-1.825,0.492v14.869h-10.258v-22.387H369.349z"/>
		<path fill="#941B80" d="M397.44,137.148c-0.804,0-1.56,0-2.271-0.045c-0.086,0.133-0.134,0.27-0.134,0.492
			c0,0.403,0.266,0.67,0.846,0.719l9.277,0.983c5.04,0.536,6.106,3.355,6.106,6.985c0,6.044-6.285,8.684-14.849,8.684
			c-8.829,0-11.369-2.461-11.369-6.087c0-3.179,2.006-4.702,4.546-5.284c-1.559-0.448-2.451-2.24-2.451-3.762
			c0-1.969,1.114-3.355,2.542-4.162h0.087c-2.27-1.346-3.299-3.629-3.299-7.213c0-6.311,3.256-8.684,10.969-8.684
			c2.5,0,4.549,0.271,6.155,0.809h7.405v6.398l-2.632,0.719c0.044,0.27,0.044,0.487,0.044,0.758
			C408.413,134.775,405.158,137.148,397.44,137.148z M395.257,145.027c-0.582,0.266-1.16,0.674-1.16,1.569
			c0,0.894,0.449,1.876,3.256,1.876c2.988,0,4.416-0.76,4.416-1.876c0-0.494-0.175-0.853-0.848-0.94L395.257,145.027z
			 M397.44,125.912c-1.511,0-1.956,0.894-1.956,2.771c0,1.883,0.445,2.774,1.956,2.774c1.52,0,1.961-0.892,1.961-2.774
			C399.401,126.806,398.96,125.912,397.44,125.912z"/>
	</g>
	<g>
		<path fill="#941B80" d="M288.844,45.789c-3.544,0-6.416-2.883-6.416-6.444V6.406c0-3.556,2.872-6.439,6.416-6.439h32.811
			c3.543,0,6.414,2.883,6.414,6.439v32.938c0,3.561-2.871,6.444-6.414,6.444H288.844z"/>
		<g>
			<path fill="#FFFFFF" d="M297.764,7.205v1.269l-1.104,1.111l1.18,1.191l-1.182,1.188l1.142,1.154l-1.101,1.11l1.184,1.191
				l-1.187,1.189l1.146,1.149l-1.185,1.193l1.145,1.15l-0.039,0.753c-0.873,0-1.58,0.71-1.579,1.588
				c0,0.876,0.706,1.586,1.582,1.586v10.475l0,0c-0.003,2.234-1.809,4.047-4.034,4.047c-2.228,0-4.033-1.813-4.033-4.047l0,0V24.027
				c0.872,0,1.583-0.71,1.583-1.586c0.003-0.877-0.709-1.59-1.583-1.588C289.699,20.853,288.673,7.205,297.764,7.205z"/>
			<path fill="#FFFFFF" d="M304.855,7.203c0.64,0.002,1.156,0.521,1.156,1.16v9.605c0,0.381,0.308,0.691,0.693,0.693
				c0.383-0.002,0.692-0.313,0.69-0.693l0,0V8.366c0-0.643,0.516-1.162,1.154-1.162c0.639,0.002,1.155,0.519,1.155,1.16v11.795
				c0,0.384-0.435,0.694-0.818,0.694c-0.873,0.002-1.579,0.71-1.579,1.588c0,0.876,0.706,1.586,1.579,1.586v10.475l0,0
				c-0.001,2.234-1.805,4.047-4.031,4.047c-2.224,0-4.033-1.813-4.03-4.047l0,0V24.027c0.871,0,1.58-0.71,1.58-1.586
				c0-0.877-0.709-1.588-1.583-1.588c-0.379,0-0.816-0.31-0.814-0.696V8.362c0-0.639,0.515-1.155,1.154-1.158
				c0.636,0.002,1.153,0.519,1.153,1.16v9.603v0.002c0,0.377,0.312,0.691,0.693,0.689c0.382,0.002,0.692-0.31,0.692-0.691V8.362
				C303.701,7.723,304.22,7.205,304.855,7.203z"/>
			<path fill="#FFFFFF" d="M311.948,24.027c0.875,0,1.582-0.713,1.582-1.586c0-0.44-0.179-0.836-0.463-1.124
				c-1.358-1.537-1.935-3.521-1.935-7.29s2.169-6.823,4.848-6.823c2.676,0,4.848,3.056,4.848,6.823c0,3.769-0.579,5.753-1.935,7.29
				c-0.284,0.288-0.464,0.686-0.464,1.124c0,0.876,0.708,1.586,1.581,1.586v10.475l0,0c0.001,2.234-1.807,4.047-4.03,4.047
				c-2.227,0-4.029-1.813-4.032-4.047l0,0V24.027z"/>
		</g>
	</g>
</g>
</svg>
