<?xml version="1.0" encoding="utf-8"?>
<!-- Generator: Adobe Illustrator 16.0.0, SVG Export Plug-In . SVG Version: 6.00 Build 0)  -->
<!DOCTYPE svg PUBLIC "-//W3C//DTD SVG 1.1//EN" "http://www.w3.org/Graphics/SVG/1.1/DTD/svg11.dtd">
<svg version="1.1" id="Layer_1" xmlns="http://www.w3.org/2000/svg" xmlns:xlink="http://www.w3.org/1999/xlink" x="0px" y="0px"
	 width="287.5px" height="146.121px" viewBox="0 0 287.5 146.121" enable-background="new 0 0 287.5 146.121" xml:space="preserve">
<g id="Layer_1_1_" display="none">
</g>
<g id="Layer_2">
	<path id="Facebook_3_" fill="#951B81" d="M28.032,4.166c0,0.48,0,2.622,0,2.622H26.11v3.208h1.921v9.529h3.948v-9.53h2.647
		c0,0,0.247-1.538,0.368-3.219c-0.346,0-3.002,0-3.002,0s0-1.866,0-2.193s0.43-0.768,0.855-0.768c0.424,0,1.318,0,2.148,0
		c0-0.437,0-1.945,0-3.338c-1.105,0-2.368,0-2.926,0C27.934,0.477,28.032,3.687,28.032,4.166z"/>
	<path id="Facebook_1_" fill="#3B599A" d="M28.032,24.166c0,0.479,0,2.621,0,2.621H26.11v3.208h1.921v9.528h3.948v-9.528h2.647
		c0,0,0.247-1.538,0.368-3.22c-0.346,0-3.002,0-3.002,0s0-1.865,0-2.192s0.43-0.769,0.855-0.769c0.424,0,1.318,0,2.148,0
		c0-0.436,0-1.945,0-3.338c-1.105,0-2.368,0-2.926,0C27.934,20.477,28.032,23.687,28.032,24.166z"/>
	<path id="Twitter_2_" fill="#951B81" d="M14.656,14.705h-4.645c-0.646,0-1.195-0.226-1.646-0.68
		c-0.453-0.454-0.677-1.003-0.677-1.652v-1.652h6.618c0.597,0,1.112-0.216,1.538-0.642c0.427-0.429,0.642-0.942,0.642-1.541
		s-0.215-1.112-0.643-1.54c-0.428-0.427-0.944-0.642-1.543-0.642H7.688V2.942c0-0.646-0.23-1.2-0.688-1.661
		C6.545,0.82,5.994,0.588,5.354,0.588c-0.658,0-1.219,0.229-1.674,0.68C3.222,1.722,2.994,2.279,2.994,2.944v9.431
		c0,1.939,0.686,3.597,2.058,4.972c1.373,1.378,3.028,2.065,4.963,2.065h4.643c0.646,0,1.199-0.232,1.66-0.694
		c0.459-0.459,0.689-1.014,0.689-1.66s-0.23-1.199-0.689-1.661C15.857,14.938,15.302,14.705,14.656,14.705z"/>
	<path id="Twitter_1_" fill="#55ACEE" d="M14.656,34.705h-4.645c-0.646,0-1.195-0.227-1.646-0.68
		c-0.453-0.455-0.677-1.004-0.677-1.652v-1.652h6.618c0.598,0,1.112-0.216,1.538-0.642c0.427-0.429,0.642-0.942,0.642-1.541
		s-0.215-1.112-0.643-1.54c-0.428-0.427-0.944-0.642-1.543-0.642H7.688v-3.415c0-0.646-0.23-1.2-0.688-1.661
		c-0.456-0.461-1.007-0.693-1.647-0.693c-0.658,0-1.219,0.229-1.674,0.68c-0.457,0.454-0.686,1.011-0.686,1.676v9.431
		c0,1.938,0.686,3.597,2.058,4.972c1.373,1.379,3.028,2.065,4.963,2.065h4.644c0.645,0,1.199-0.231,1.659-0.693
		c0.459-0.459,0.689-1.014,0.689-1.659s-0.23-1.199-0.689-1.66C15.857,34.938,15.302,34.705,14.656,34.705z"/>
</g>
<g>
	<rect x="122.332" y="51.447" fill="none" width="59.999" height="45"/>
	<g>
		<polygon fill="#FFFFFF" points="170.343,60.963 161.164,60.963 161.164,51.432 134.147,51.432 134.147,96.496 170.517,96.496 
			170.517,61.145 		"/>
		<polygon fill="#CCCCCC" points="170.343,60.963 170.517,60.963 161.164,51.383 161.164,51.432 161.164,60.963 		"/>
	</g>
</g>
<g>
	<rect x="2.332" y="51.227" fill="none" width="60" height="45"/>
	<path fill="#FFFFFF" d="M59.603,68.801c-0.795-14.967-16.339-12.406-16.339-12.406s-3.151-5.114-11.225-5.114
		c-0.113,0-0.223,0.012-0.332,0.028c-0.109-0.017-0.219-0.028-0.332-0.028c-8.074,0-11.225,5.114-11.225,5.114
		S4.606,53.834,3.812,68.801s12.4,13.195,12.4,13.195l0.197,14.178h8.475H38.53h8.476l0.197-14.178
		C47.203,81.996,60.396,83.768,59.603,68.801z"/>
</g>
<path fill="#FFFFFF" d="M-265.167-84.579"/>
<g>
	<rect x="62.332" y="51.439" fill="none" width="60" height="45"/>
	<path fill="#FFFFFF" d="M116.683,89.453c0-4.938-3.899-6.537-4.811-6.961c-0.912-0.425-2.23-1.104-2.23-1.104l-0.594-0.51
		c2.377-1.953,2.802-4.5,2.802-8.66c0-4.159,0.509-5.178-3.396-9.593c-3.906-4.415-11.451-1.358-11.451-1.358
		c-1.264,0.17-2.643,1.273-2.812,3.227c-0.17,1.952,2.037,2.547,2.037,2.547c-2.462,2.801-1.104,6.282-1.501,7.301
		c-0.396,1.019-0.136,1.637-0.136,1.637s-0.704,0.352-0.704,1.285s0.134,0.559,0.134,1.832s2.981,3.141,2.981,3.141l-0.01,0.848
		c0,0,0.254,0.087-1.783,0.002c-0.15-0.006-0.293,0.037-0.432,0.113c0.026-0.491,0.047-0.852,0.061-1.008
		c0.084-0.934-4.93-6.021-4.93-6.021l-1.188,0.171l0.254-0.68c2.545-1.361,4.492-5.862,4.486-11.211s-1.449-5.771-1.449-5.771
		l0.169-0.849c1.697-0.427-0.003-2.679-0.003-2.679c-8.16-8.526-14.518-0.362-14.857,0.017c-0.339,0.379-1.186,2.17-1.605,6.67
		c-0.419,4.5,3.148,6.788,3.659,7.552c0.511,0.763-1.018,1.02-1.018,1.02l0.005,4.11c-3.736,0.005-9.304,6.385-9.304,6.385
		c-1.328,2.506-1.627,12.072,0.015,12.979c1.641,0.907,15.935,2.411,19.242-0.021c2.446-1.799,3.745-1.932,4.258-1.879
		c0.468,0.772,2.4,2.407,2.638,2.407c0,0,1.528,1.514,12.055,2.022C117.792,96.924,116.683,89.453,116.683,89.453z"/>
</g>
<g>
	<rect x="182.332" y="51.447" fill="none" width="59.399" height="44.55"/>
	<g>
		<path fill="#FFFFFF" d="M217.62,61.721c0,0-0.859,3.614-0.156,4.004c0.703,0.391,3.05-1.486,2.425-0.547
			c-0.625,0.938-2.02,2.895-4.959,0.157c0,0,0.657-0.471,1.205-0.314c0,0-0.938-4.536-10.246-2.972s-11.106,16.033-8.136,21.978
			c2.975,5.945,5.164,12.671,16.819,12.437c11.65-0.235,18.926-6.491,18.846-18.225C233.342,66.508,226.462,61.705,217.62,61.721z"
			/>
		<path fill="#FFFFFF" d="M193.836,52.977c2.033,4.927,20.179,8.056,20.179,8.056C208.617,56.263,193.836,52.977,193.836,52.977z"/>
		<path fill="#FFFFFF" d="M214.796,61.032c0,0-4.928-12.436-20.96-8.916C193.836,52.116,212.997,57.279,214.796,61.032z"/>
		<path fill="#FFFFFF" d="M215.588,62.596l0.627,1.174v-5.553c0.626-4.38,0.701-3.832,0-4.536c-0.704-0.704-1.801-0.469-1.285,1.212
			C215.444,56.574,215.588,62.596,215.588,62.596z"/>
	</g>
</g>
<rect x="42.332" y="14.783" fill="#951B81" width="40" height="9.268"/>
<rect x="42.332" y="29.565" fill="#951B81" width="40" height="9.267"/>
<rect x="42.332" fill="#951B81" width="40" height="9.267"/>
<rect x="42.332" fill="none" width="40" height="38.832"/>
<rect x="87.332" y="14.783" fill="#222222" width="40" height="9.268"/>
<rect x="87.332" y="29.564" fill="#222222" width="40" height="9.268"/>
<rect x="87.332" fill="#222222" width="40" height="9.267"/>
<rect x="128.457" y="16.785" transform="matrix(-0.7071 -0.7071 0.7071 -0.7071 238.2845 141.541)" fill="#EEEEEE" width="40.001" height="9.268"/>
<rect x="128.457" y="16.785" transform="matrix(-0.7071 0.7071 -0.7071 -0.7071 268.5769 -68.4112)" fill="#EEEEEE" width="40" height="9.268"/>
<rect x="168.169" y="16.785" transform="matrix(-0.7071 -0.7071 0.7071 -0.7071 306.0765 169.622)" fill="#951B81" width="40.001" height="9.268"/>
<rect x="168.169" y="16.785" transform="matrix(-0.7071 0.7071 -0.7071 -0.7071 336.3691 -96.492)" fill="#951B81" width="40" height="9.268"/>
</svg>
